<?xml version="1.0" encoding="UTF-8"?>
<!--Generator: Apple Native CoreSVG 232.5-->
<!DOCTYPE svg
PUBLIC "-//W3C//DTD SVG 1.1//EN"
       "http://www.w3.org/Graphics/SVG/1.1/DTD/svg11.dtd">
<svg version="1.1" xmlns="http://www.w3.org/2000/svg" xmlns:xlink="http://www.w3.org/1999/xlink" width="695.951" height="704.554">
 <g>
  <rect height="704.554" opacity="0" width="695.951" x="0" y="0"/>
  <path d="M551.09 520.331L582.18 521.775C591.457 522.028 601.348 528.251 606.639 538.142L659.885 635.687C664.619 645.021 665.861 651.87 660.317 657.415L626.165 691.876C620.311 697.731 613.214 696.368 604.311 691.819L506.335 638.325C496.501 633.155 490.095 622.953 489.905 613.987L488.397 582.712L357.563 451.877C373.642 431.516 392.567 409.164 415.131 384.485ZM194.268 62.536L369.241 238.036C370.888 242.671 372.8 247.234 374.916 251.726C302.038 323.706 246.42 367.348 202.022 397.055L30.7295 225.453C-10.1024 184.374-10.0964 140.591 29.8735 100.558L68.7514 61.68C109.215 21.5265 153.125 21.3936 194.268 62.536ZM89.6343 159.945C85.2175 164.672 84.7806 172.08 89.6343 176.623L205.774 292.453C210.628 296.996 217.972 296.932 222.516 292.389C227.058 287.846 227.306 280.876 222.452 276.333L106.065 159.945C101.895 155.839 94.2412 155.402 89.6343 159.945ZM128.386 121.815C123.532 126.358 123.843 133.328 128.386 137.872L244.215 254.632C248.759 259.176 256.723 258.491 260.582 254.632C265.436 249.405 265.436 242.124 260.893 237.645L144.753 121.815C139.899 117.025 132.619 117.335 128.386 121.815Z" fill="#000000" fill-opacity="0.85"/>
  <path d="M437.452 274.421C385.363 222.206 383.189 139.832 433.104 90.4739C461.355 62.2862 501.391 50.6973 539.545 56.7663L497.273 99.4122C475.597 120.778 476.402 148.107 498.572 170.341L542.153 213.237C563.83 235.224 591.469 235.408 612.213 214.974L655.171 171.396C661.733 210.482 650.145 250.581 621.399 279.016C571.979 328.62 489.914 326.2 437.452 274.421ZM74.7115 637.225C41.1759 603.252 41.5496 559.306 73.9643 526.765C144.748 456.729 186.9 486.635 394.383 283.632C399.306 289.993 404.419 295.98 409.969 301.53C415.583 307.454 421.943 312.941 428.305 317.554C225.612 525.348 255.518 567.499 185.109 637.972C152.631 670.387 108.622 670.761 74.7115 637.225ZM129.194 619.676C149.185 619.676 165.501 603.671 165.501 583.553C165.501 563.499 149.185 547.431 129.194 547.431C109.387 547.431 93.008 563.499 93.008 583.553C93.008 603.671 109.387 619.676 129.194 619.676Z" fill="#000000" fill-opacity="0.85"/>
 </g>
</svg>
